<mxfile host="app.diagrams.net" agent="Mozilla/5.0 (Windows NT 10.0; Win64; x64) AppleWebKit/537.36 (KHTML, like Gecko) Chrome/141.0.0.0 Safari/537.36" version="28.2.3">
  <diagram name="Page-1" id="ARYpPno7nMeHhi26IZul">
    <mxGraphModel dx="1042" dy="1627" grid="1" gridSize="10" guides="1" tooltips="1" connect="1" arrows="1" fold="1" page="1" pageScale="1" pageWidth="850" pageHeight="1100" math="0" shadow="0">
      <root>
        <mxCell id="0" />
        <mxCell id="1" parent="0" />
        <mxCell id="18kSIOf5u8bGrFoKXUlI-13" value="" style="group;rotation=-90;" vertex="1" connectable="0" parent="1">
          <mxGeometry x="380" width="40" height="140" as="geometry" />
        </mxCell>
        <mxCell id="18kSIOf5u8bGrFoKXUlI-11" value="" style="group;rotation=-90;" vertex="1" connectable="0" parent="18kSIOf5u8bGrFoKXUlI-13">
          <mxGeometry x="-20" y="20" width="40" height="100" as="geometry" />
        </mxCell>
        <mxCell id="18kSIOf5u8bGrFoKXUlI-1" value="" style="endArrow=none;html=1;rounded=0;" edge="1" parent="18kSIOf5u8bGrFoKXUlI-11">
          <mxGeometry width="50" height="50" relative="1" as="geometry">
            <mxPoint x="-30" y="50" as="sourcePoint" />
            <mxPoint y="50" as="targetPoint" />
          </mxGeometry>
        </mxCell>
        <mxCell id="18kSIOf5u8bGrFoKXUlI-3" value="" style="endArrow=none;html=1;rounded=0;" edge="1" parent="18kSIOf5u8bGrFoKXUlI-11">
          <mxGeometry width="50" height="50" relative="1" as="geometry">
            <mxPoint y="70" as="sourcePoint" />
            <mxPoint y="30" as="targetPoint" />
          </mxGeometry>
        </mxCell>
        <mxCell id="18kSIOf5u8bGrFoKXUlI-4" value="" style="endArrow=none;html=1;rounded=0;" edge="1" parent="18kSIOf5u8bGrFoKXUlI-11">
          <mxGeometry width="50" height="50" relative="1" as="geometry">
            <mxPoint x="10" y="60" as="sourcePoint" />
            <mxPoint x="10" y="40" as="targetPoint" />
          </mxGeometry>
        </mxCell>
        <mxCell id="18kSIOf5u8bGrFoKXUlI-5" value="" style="endArrow=none;html=1;rounded=0;" edge="1" parent="18kSIOf5u8bGrFoKXUlI-11">
          <mxGeometry width="50" height="50" relative="1" as="geometry">
            <mxPoint x="20" y="70" as="sourcePoint" />
            <mxPoint x="20" y="30" as="targetPoint" />
          </mxGeometry>
        </mxCell>
        <mxCell id="18kSIOf5u8bGrFoKXUlI-6" value="" style="endArrow=none;html=1;rounded=0;" edge="1" parent="18kSIOf5u8bGrFoKXUlI-11">
          <mxGeometry width="50" height="50" relative="1" as="geometry">
            <mxPoint x="30" y="60" as="sourcePoint" />
            <mxPoint x="30" y="40" as="targetPoint" />
          </mxGeometry>
        </mxCell>
        <mxCell id="18kSIOf5u8bGrFoKXUlI-7" value="" style="endArrow=none;html=1;rounded=0;" edge="1" parent="18kSIOf5u8bGrFoKXUlI-11">
          <mxGeometry width="50" height="50" relative="1" as="geometry">
            <mxPoint x="40" y="70" as="sourcePoint" />
            <mxPoint x="40" y="30" as="targetPoint" />
          </mxGeometry>
        </mxCell>
        <mxCell id="18kSIOf5u8bGrFoKXUlI-8" value="" style="endArrow=none;html=1;rounded=0;" edge="1" parent="18kSIOf5u8bGrFoKXUlI-11">
          <mxGeometry width="50" height="50" relative="1" as="geometry">
            <mxPoint x="50" y="60" as="sourcePoint" />
            <mxPoint x="50" y="40" as="targetPoint" />
          </mxGeometry>
        </mxCell>
        <mxCell id="18kSIOf5u8bGrFoKXUlI-9" value="" style="endArrow=none;html=1;rounded=0;" edge="1" parent="18kSIOf5u8bGrFoKXUlI-11">
          <mxGeometry width="50" height="50" relative="1" as="geometry">
            <mxPoint x="60" y="70" as="sourcePoint" />
            <mxPoint x="60" y="30" as="targetPoint" />
          </mxGeometry>
        </mxCell>
        <mxCell id="18kSIOf5u8bGrFoKXUlI-10" value="" style="endArrow=none;html=1;rounded=0;" edge="1" parent="18kSIOf5u8bGrFoKXUlI-11">
          <mxGeometry width="50" height="50" relative="1" as="geometry">
            <mxPoint x="70" y="60" as="sourcePoint" />
            <mxPoint x="70" y="40" as="targetPoint" />
          </mxGeometry>
        </mxCell>
        <mxCell id="18kSIOf5u8bGrFoKXUlI-12" value="" style="endArrow=none;html=1;rounded=0;" edge="1" parent="18kSIOf5u8bGrFoKXUlI-13">
          <mxGeometry width="50" height="50" relative="1" as="geometry">
            <mxPoint x="90" y="70" as="sourcePoint" />
            <mxPoint x="50" y="70" as="targetPoint" />
          </mxGeometry>
        </mxCell>
        <mxCell id="18kSIOf5u8bGrFoKXUlI-26" value="" style="endArrow=none;html=1;rounded=0;exitX=0;exitY=0.75;exitDx=0;exitDy=0;" edge="1" parent="18kSIOf5u8bGrFoKXUlI-13" source="18kSIOf5u8bGrFoKXUlI-20">
          <mxGeometry width="50" height="50" relative="1" as="geometry">
            <mxPoint x="90" y="140" as="sourcePoint" />
            <mxPoint x="90" y="70" as="targetPoint" />
            <Array as="points">
              <mxPoint x="-50" y="195" />
              <mxPoint x="-50" y="130" />
              <mxPoint x="90" y="130" />
            </Array>
          </mxGeometry>
        </mxCell>
        <mxCell id="18kSIOf5u8bGrFoKXUlI-14" value="- side&amp;nbsp;" style="text;html=1;align=center;verticalAlign=middle;resizable=0;points=[];autosize=1;strokeColor=none;fillColor=none;" vertex="1" parent="1">
          <mxGeometry x="490" y="28" width="60" height="30" as="geometry" />
        </mxCell>
        <mxCell id="18kSIOf5u8bGrFoKXUlI-15" value="+ side&amp;nbsp;" style="text;html=1;align=center;verticalAlign=middle;resizable=0;points=[];autosize=1;strokeColor=none;fillColor=none;" vertex="1" parent="1">
          <mxGeometry x="300" y="20" width="60" height="30" as="geometry" />
        </mxCell>
        <mxCell id="18kSIOf5u8bGrFoKXUlI-16" value="12V" style="text;html=1;align=center;verticalAlign=middle;resizable=0;points=[];autosize=1;strokeColor=none;fillColor=none;" vertex="1" parent="1">
          <mxGeometry x="370" y="-2" width="40" height="30" as="geometry" />
        </mxCell>
        <mxCell id="18kSIOf5u8bGrFoKXUlI-17" value="" style="endArrow=none;html=1;rounded=0;fillColor=#f8cecc;strokeColor=#b85450;" edge="1" parent="1">
          <mxGeometry width="50" height="50" relative="1" as="geometry">
            <mxPoint x="270" y="70" as="sourcePoint" />
            <mxPoint x="330" y="70" as="targetPoint" />
          </mxGeometry>
        </mxCell>
        <mxCell id="18kSIOf5u8bGrFoKXUlI-18" value="" style="endArrow=classic;html=1;rounded=0;" edge="1" parent="1">
          <mxGeometry width="50" height="50" relative="1" as="geometry">
            <mxPoint x="230" y="70" as="sourcePoint" />
            <mxPoint x="260" y="50" as="targetPoint" />
          </mxGeometry>
        </mxCell>
        <mxCell id="18kSIOf5u8bGrFoKXUlI-19" value="" style="endArrow=none;html=1;rounded=0;fillColor=#f8cecc;strokeColor=#b85450;" edge="1" parent="1">
          <mxGeometry width="50" height="50" relative="1" as="geometry">
            <mxPoint x="190" y="70" as="sourcePoint" />
            <mxPoint x="230" y="70" as="targetPoint" />
          </mxGeometry>
        </mxCell>
        <mxCell id="18kSIOf5u8bGrFoKXUlI-21" value="" style="endArrow=none;html=1;rounded=0;fillColor=#f8cecc;strokeColor=#b85450;" edge="1" parent="1">
          <mxGeometry width="50" height="50" relative="1" as="geometry">
            <mxPoint x="190" y="160" as="sourcePoint" />
            <mxPoint x="190" y="70" as="targetPoint" />
          </mxGeometry>
        </mxCell>
        <mxCell id="18kSIOf5u8bGrFoKXUlI-23" value="" style="endArrow=none;html=1;rounded=0;fillColor=#f8cecc;strokeColor=#b85450;" edge="1" parent="1">
          <mxGeometry width="50" height="50" relative="1" as="geometry">
            <mxPoint x="190" y="160" as="sourcePoint" />
            <mxPoint x="360" y="160" as="targetPoint" />
          </mxGeometry>
        </mxCell>
        <mxCell id="18kSIOf5u8bGrFoKXUlI-25" value="" style="endArrow=none;html=1;rounded=0;exitX=-0.1;exitY=-0.093;exitDx=0;exitDy=0;exitPerimeter=0;fillColor=#f8cecc;strokeColor=#b85450;" edge="1" parent="1" source="18kSIOf5u8bGrFoKXUlI-36">
          <mxGeometry width="50" height="50" relative="1" as="geometry">
            <mxPoint x="190" y="300" as="sourcePoint" />
            <mxPoint x="190" y="160" as="targetPoint" />
            <Array as="points">
              <mxPoint x="190" y="277" />
            </Array>
          </mxGeometry>
        </mxCell>
        <mxCell id="18kSIOf5u8bGrFoKXUlI-31" value="" style="group" vertex="1" connectable="0" parent="1">
          <mxGeometry x="360" y="150" width="90" height="60" as="geometry" />
        </mxCell>
        <mxCell id="18kSIOf5u8bGrFoKXUlI-20" value="" style="rounded=0;whiteSpace=wrap;html=1;" vertex="1" parent="18kSIOf5u8bGrFoKXUlI-31">
          <mxGeometry width="80" height="60" as="geometry" />
        </mxCell>
        <mxCell id="18kSIOf5u8bGrFoKXUlI-27" value="IN+" style="text;html=1;align=center;verticalAlign=middle;resizable=0;points=[];autosize=1;strokeColor=none;fillColor=none;" vertex="1" parent="18kSIOf5u8bGrFoKXUlI-31">
          <mxGeometry width="40" height="30" as="geometry" />
        </mxCell>
        <mxCell id="18kSIOf5u8bGrFoKXUlI-28" value="IN-" style="text;html=1;align=center;verticalAlign=middle;resizable=0;points=[];autosize=1;strokeColor=none;fillColor=none;" vertex="1" parent="18kSIOf5u8bGrFoKXUlI-31">
          <mxGeometry y="30" width="40" height="30" as="geometry" />
        </mxCell>
        <mxCell id="18kSIOf5u8bGrFoKXUlI-29" value="OUT-" style="text;html=1;align=center;verticalAlign=middle;resizable=0;points=[];autosize=1;strokeColor=none;fillColor=none;" vertex="1" parent="18kSIOf5u8bGrFoKXUlI-31">
          <mxGeometry x="30" y="30" width="50" height="30" as="geometry" />
        </mxCell>
        <mxCell id="18kSIOf5u8bGrFoKXUlI-30" value="OUT+" style="text;html=1;align=center;verticalAlign=middle;resizable=0;points=[];autosize=1;strokeColor=none;fillColor=none;" vertex="1" parent="18kSIOf5u8bGrFoKXUlI-31">
          <mxGeometry x="30" width="60" height="30" as="geometry" />
        </mxCell>
        <mxCell id="18kSIOf5u8bGrFoKXUlI-84" value="" style="endArrow=none;html=1;rounded=0;" edge="1" parent="18kSIOf5u8bGrFoKXUlI-31">
          <mxGeometry width="50" height="50" relative="1" as="geometry">
            <mxPoint x="80" y="50" as="sourcePoint" />
            <mxPoint x="200" y="50" as="targetPoint" />
          </mxGeometry>
        </mxCell>
        <mxCell id="18kSIOf5u8bGrFoKXUlI-32" value="" style="endArrow=none;html=1;rounded=0;exitX=-0.02;exitY=0.627;exitDx=0;exitDy=0;exitPerimeter=0;" edge="1" parent="1" source="18kSIOf5u8bGrFoKXUlI-36">
          <mxGeometry width="50" height="50" relative="1" as="geometry">
            <mxPoint x="470" y="240" as="sourcePoint" />
            <mxPoint x="470" y="130" as="targetPoint" />
            <Array as="points">
              <mxPoint x="260" y="299" />
              <mxPoint x="260" y="240" />
              <mxPoint x="289" y="240" />
              <mxPoint x="470" y="240" />
            </Array>
          </mxGeometry>
        </mxCell>
        <mxCell id="18kSIOf5u8bGrFoKXUlI-34" value="" style="whiteSpace=wrap;html=1;aspect=fixed;" vertex="1" parent="1">
          <mxGeometry x="290" y="270" width="80" height="80" as="geometry" />
        </mxCell>
        <mxCell id="18kSIOf5u8bGrFoKXUlI-35" value="12V" style="text;html=1;align=center;verticalAlign=middle;resizable=0;points=[];autosize=1;strokeColor=none;fillColor=none;fontSize=8;" vertex="1" parent="1">
          <mxGeometry x="290" y="270" width="40" height="20" as="geometry" />
        </mxCell>
        <mxCell id="18kSIOf5u8bGrFoKXUlI-36" value="&lt;font style=&quot;font-size: 9px;&quot;&gt;GND&lt;/font&gt;" style="text;html=1;align=center;verticalAlign=middle;resizable=0;points=[];autosize=1;strokeColor=none;fillColor=none;" vertex="1" parent="1">
          <mxGeometry x="290" y="280" width="40" height="30" as="geometry" />
        </mxCell>
        <mxCell id="18kSIOf5u8bGrFoKXUlI-37" value="&lt;font style=&quot;font-size: 10px;&quot;&gt;MOTOR PINS&lt;/font&gt;" style="text;html=1;align=center;verticalAlign=middle;resizable=0;points=[];autosize=1;strokeColor=none;fillColor=none;rotation=90;" vertex="1" parent="1">
          <mxGeometry x="310" y="295" width="90" height="30" as="geometry" />
        </mxCell>
        <mxCell id="18kSIOf5u8bGrFoKXUlI-38" value="" style="rounded=0;whiteSpace=wrap;html=1;rotation=90;" vertex="1" parent="1">
          <mxGeometry x="620" y="190" width="120" height="60" as="geometry" />
        </mxCell>
        <mxCell id="18kSIOf5u8bGrFoKXUlI-39" value="&lt;div&gt;&lt;br&gt;&lt;/div&gt;" style="rounded=0;whiteSpace=wrap;html=1;rotation=90;" vertex="1" parent="1">
          <mxGeometry x="560" y="360" width="120" height="60" as="geometry" />
        </mxCell>
        <mxCell id="18kSIOf5u8bGrFoKXUlI-40" value="&lt;font style=&quot;font-size: 9px;&quot;&gt;5V&lt;/font&gt;" style="text;html=1;align=center;verticalAlign=middle;resizable=0;points=[];autosize=1;strokeColor=none;fillColor=none;" vertex="1" parent="1">
          <mxGeometry x="650" y="160" width="30" height="30" as="geometry" />
        </mxCell>
        <mxCell id="18kSIOf5u8bGrFoKXUlI-41" value="&lt;font style=&quot;font-size: 9px;&quot;&gt;GND&lt;/font&gt;" style="text;html=1;align=center;verticalAlign=middle;resizable=0;points=[];autosize=1;strokeColor=none;fillColor=none;" vertex="1" parent="1">
          <mxGeometry x="645" y="180" width="40" height="30" as="geometry" />
        </mxCell>
        <mxCell id="18kSIOf5u8bGrFoKXUlI-42" value="&lt;font style=&quot;font-size: 9px;&quot;&gt;VIN&lt;/font&gt;" style="text;html=1;align=center;verticalAlign=middle;resizable=0;points=[];autosize=1;strokeColor=none;fillColor=none;" vertex="1" parent="1">
          <mxGeometry x="590" y="330" width="40" height="30" as="geometry" />
        </mxCell>
        <mxCell id="18kSIOf5u8bGrFoKXUlI-43" value="&lt;font style=&quot;font-size: 9px;&quot;&gt;GND&lt;/font&gt;" style="text;html=1;align=center;verticalAlign=middle;resizable=0;points=[];autosize=1;strokeColor=none;fillColor=none;" vertex="1" parent="1">
          <mxGeometry x="590" y="340" width="40" height="30" as="geometry" />
        </mxCell>
        <mxCell id="18kSIOf5u8bGrFoKXUlI-44" value="&lt;font style=&quot;font-size: 9px;&quot;&gt;TX&lt;/font&gt;" style="text;html=1;align=center;verticalAlign=middle;resizable=0;points=[];autosize=1;strokeColor=none;fillColor=none;" vertex="1" parent="1">
          <mxGeometry x="620" y="400" width="40" height="30" as="geometry" />
        </mxCell>
        <mxCell id="18kSIOf5u8bGrFoKXUlI-45" value="&lt;font style=&quot;font-size: 9px;&quot;&gt;RX&lt;/font&gt;" style="text;html=1;align=center;verticalAlign=middle;resizable=0;points=[];autosize=1;strokeColor=none;fillColor=none;" vertex="1" parent="1">
          <mxGeometry x="620" y="420" width="40" height="30" as="geometry" />
        </mxCell>
        <mxCell id="18kSIOf5u8bGrFoKXUlI-46" value="&lt;font style=&quot;font-size: 9px;&quot;&gt;RX&lt;/font&gt;" style="text;html=1;align=center;verticalAlign=middle;resizable=0;points=[];autosize=1;strokeColor=none;fillColor=none;" vertex="1" parent="1">
          <mxGeometry x="640" y="230" width="40" height="30" as="geometry" />
        </mxCell>
        <mxCell id="18kSIOf5u8bGrFoKXUlI-47" value="&lt;font style=&quot;font-size: 9px;&quot;&gt;TX&lt;/font&gt;" style="text;html=1;align=center;verticalAlign=middle;resizable=0;points=[];autosize=1;strokeColor=none;fillColor=none;" vertex="1" parent="1">
          <mxGeometry x="640" y="250" width="40" height="30" as="geometry" />
        </mxCell>
        <mxCell id="18kSIOf5u8bGrFoKXUlI-48" value="" style="endArrow=none;html=1;rounded=0;fillColor=#f8cecc;strokeColor=#b85450;" edge="1" parent="1">
          <mxGeometry width="50" height="50" relative="1" as="geometry">
            <mxPoint x="330" y="410" as="sourcePoint" />
            <mxPoint x="330" y="350" as="targetPoint" />
          </mxGeometry>
        </mxCell>
        <mxCell id="18kSIOf5u8bGrFoKXUlI-49" value="" style="endArrow=none;html=1;rounded=0;" edge="1" parent="1">
          <mxGeometry width="50" height="50" relative="1" as="geometry">
            <mxPoint x="350" y="410" as="sourcePoint" />
            <mxPoint x="350" y="350" as="targetPoint" />
          </mxGeometry>
        </mxCell>
        <mxCell id="18kSIOf5u8bGrFoKXUlI-50" value="" style="ellipse;whiteSpace=wrap;html=1;aspect=fixed;" vertex="1" parent="1">
          <mxGeometry x="320" y="400" width="50" height="50" as="geometry" />
        </mxCell>
        <mxCell id="18kSIOf5u8bGrFoKXUlI-53" value="" style="ellipse;whiteSpace=wrap;html=1;aspect=fixed;" vertex="1" parent="1">
          <mxGeometry x="170" y="340" width="50" height="50" as="geometry" />
        </mxCell>
        <mxCell id="18kSIOf5u8bGrFoKXUlI-54" value="&lt;font style=&quot;font-size: 9px;&quot;&gt;MOTOR 1&lt;/font&gt;" style="text;html=1;align=center;verticalAlign=middle;resizable=0;points=[];autosize=1;strokeColor=none;fillColor=none;" vertex="1" parent="1">
          <mxGeometry x="255" y="410" width="60" height="30" as="geometry" />
        </mxCell>
        <mxCell id="18kSIOf5u8bGrFoKXUlI-55" value="&lt;font style=&quot;font-size: 9px;&quot;&gt;MOTOR 2&lt;/font&gt;" style="text;html=1;align=center;verticalAlign=middle;resizable=0;points=[];autosize=1;strokeColor=none;fillColor=none;" vertex="1" parent="1">
          <mxGeometry x="110" y="370" width="60" height="30" as="geometry" />
        </mxCell>
        <mxCell id="18kSIOf5u8bGrFoKXUlI-56" value="" style="endArrow=none;html=1;rounded=0;entryX=-0.08;entryY=0.44;entryDx=0;entryDy=0;entryPerimeter=0;fillColor=#f8cecc;strokeColor=#b85450;" edge="1" parent="1" source="18kSIOf5u8bGrFoKXUlI-30" target="18kSIOf5u8bGrFoKXUlI-40">
          <mxGeometry width="50" height="50" relative="1" as="geometry">
            <mxPoint x="450" y="170" as="sourcePoint" />
            <mxPoint x="500" y="120" as="targetPoint" />
          </mxGeometry>
        </mxCell>
        <mxCell id="18kSIOf5u8bGrFoKXUlI-57" value="" style="endArrow=none;html=1;rounded=0;exitX=0.73;exitY=0.013;exitDx=0;exitDy=0;exitPerimeter=0;entryX=0.33;entryY=-0.053;entryDx=0;entryDy=0;entryPerimeter=0;" edge="1" parent="1" source="18kSIOf5u8bGrFoKXUlI-45" target="18kSIOf5u8bGrFoKXUlI-47">
          <mxGeometry width="50" height="50" relative="1" as="geometry">
            <mxPoint x="540" y="310" as="sourcePoint" />
            <mxPoint x="590" y="260" as="targetPoint" />
            <Array as="points">
              <mxPoint x="670" y="420" />
              <mxPoint x="670" y="300" />
              <mxPoint x="610" y="300" />
              <mxPoint x="610" y="250" />
            </Array>
          </mxGeometry>
        </mxCell>
        <mxCell id="18kSIOf5u8bGrFoKXUlI-58" value="" style="endArrow=none;html=1;rounded=0;" edge="1" parent="1">
          <mxGeometry width="50" height="50" relative="1" as="geometry">
            <mxPoint x="650" y="440" as="sourcePoint" />
            <mxPoint x="650" y="260" as="targetPoint" />
            <Array as="points">
              <mxPoint x="680" y="440" />
              <mxPoint x="680" y="310" />
              <mxPoint x="620" y="310" />
              <mxPoint x="620" y="260" />
            </Array>
          </mxGeometry>
        </mxCell>
        <mxCell id="18kSIOf5u8bGrFoKXUlI-63" value="" style="group" vertex="1" connectable="0" parent="1">
          <mxGeometry x="420" y="500" width="120" height="60" as="geometry" />
        </mxCell>
        <mxCell id="18kSIOf5u8bGrFoKXUlI-60" value="" style="rounded=0;whiteSpace=wrap;html=1;" vertex="1" parent="18kSIOf5u8bGrFoKXUlI-63">
          <mxGeometry width="120" height="60" as="geometry" />
        </mxCell>
        <mxCell id="18kSIOf5u8bGrFoKXUlI-61" value="" style="ellipse;whiteSpace=wrap;html=1;aspect=fixed;" vertex="1" parent="18kSIOf5u8bGrFoKXUlI-63">
          <mxGeometry x="20" y="12.5" width="35" height="35" as="geometry" />
        </mxCell>
        <mxCell id="18kSIOf5u8bGrFoKXUlI-62" value="" style="ellipse;whiteSpace=wrap;html=1;aspect=fixed;" vertex="1" parent="18kSIOf5u8bGrFoKXUlI-63">
          <mxGeometry x="60" y="12.5" width="35" height="35" as="geometry" />
        </mxCell>
        <mxCell id="18kSIOf5u8bGrFoKXUlI-65" value="" style="group" vertex="1" connectable="0" parent="1">
          <mxGeometry x="580" y="500" width="120" height="60" as="geometry" />
        </mxCell>
        <mxCell id="18kSIOf5u8bGrFoKXUlI-66" value="" style="rounded=0;whiteSpace=wrap;html=1;" vertex="1" parent="18kSIOf5u8bGrFoKXUlI-65">
          <mxGeometry width="120" height="60" as="geometry" />
        </mxCell>
        <mxCell id="18kSIOf5u8bGrFoKXUlI-67" value="" style="ellipse;whiteSpace=wrap;html=1;aspect=fixed;" vertex="1" parent="18kSIOf5u8bGrFoKXUlI-65">
          <mxGeometry x="20" y="12.5" width="35" height="35" as="geometry" />
        </mxCell>
        <mxCell id="18kSIOf5u8bGrFoKXUlI-68" value="" style="ellipse;whiteSpace=wrap;html=1;aspect=fixed;" vertex="1" parent="18kSIOf5u8bGrFoKXUlI-65">
          <mxGeometry x="60" y="12.5" width="35" height="35" as="geometry" />
        </mxCell>
        <mxCell id="18kSIOf5u8bGrFoKXUlI-74" value="&lt;font style=&quot;font-size: 10px;&quot;&gt;11&lt;/font&gt;&lt;div&gt;&lt;font style=&quot;font-size: 10px;&quot;&gt;12&lt;/font&gt;&lt;/div&gt;&lt;div&gt;&lt;font style=&quot;font-size: 10px;&quot;&gt;13&lt;/font&gt;&lt;/div&gt;&lt;div&gt;&lt;font style=&quot;font-size: 10px;&quot;&gt;9&lt;/font&gt;&lt;/div&gt;" style="text;html=1;align=center;verticalAlign=middle;resizable=0;points=[];autosize=1;strokeColor=none;fillColor=none;" vertex="1" parent="1">
          <mxGeometry x="590" y="370" width="30" height="70" as="geometry" />
        </mxCell>
        <mxCell id="18kSIOf5u8bGrFoKXUlI-75" value="" style="endArrow=none;html=1;rounded=0;exitX=0.25;exitY=0;exitDx=0;exitDy=0;fillColor=#0050ef;strokeColor=#001DBC;" edge="1" parent="1" source="18kSIOf5u8bGrFoKXUlI-60">
          <mxGeometry width="50" height="50" relative="1" as="geometry">
            <mxPoint x="450" y="380" as="sourcePoint" />
            <mxPoint x="590" y="380" as="targetPoint" />
            <Array as="points">
              <mxPoint x="450" y="380" />
            </Array>
          </mxGeometry>
        </mxCell>
        <mxCell id="18kSIOf5u8bGrFoKXUlI-76" value="" style="endArrow=none;html=1;rounded=0;exitX=0.657;exitY=0.007;exitDx=0;exitDy=0;exitPerimeter=0;fillColor=#0050ef;strokeColor=#001DBC;" edge="1" parent="1" source="18kSIOf5u8bGrFoKXUlI-60">
          <mxGeometry width="50" height="50" relative="1" as="geometry">
            <mxPoint x="500" y="490" as="sourcePoint" />
            <mxPoint x="590" y="400" as="targetPoint" />
            <Array as="points">
              <mxPoint x="500" y="400" />
            </Array>
          </mxGeometry>
        </mxCell>
        <mxCell id="18kSIOf5u8bGrFoKXUlI-77" value="" style="endArrow=none;html=1;rounded=0;exitX=0.317;exitY=-0.047;exitDx=0;exitDy=0;exitPerimeter=0;fillColor=#0050ef;strokeColor=#001DBC;" edge="1" parent="1" source="18kSIOf5u8bGrFoKXUlI-66">
          <mxGeometry width="50" height="50" relative="1" as="geometry">
            <mxPoint x="540" y="470" as="sourcePoint" />
            <mxPoint x="589" y="410" as="targetPoint" />
            <Array as="points">
              <mxPoint x="618" y="470" />
              <mxPoint x="540" y="470" />
              <mxPoint x="540" y="410" />
            </Array>
          </mxGeometry>
        </mxCell>
        <mxCell id="18kSIOf5u8bGrFoKXUlI-78" value="" style="endArrow=none;html=1;rounded=0;exitX=0.5;exitY=0;exitDx=0;exitDy=0;entryX=0.027;entryY=0.823;entryDx=0;entryDy=0;entryPerimeter=0;fillColor=#0050ef;strokeColor=#001DBC;" edge="1" parent="1" source="18kSIOf5u8bGrFoKXUlI-66" target="18kSIOf5u8bGrFoKXUlI-74">
          <mxGeometry width="50" height="50" relative="1" as="geometry">
            <mxPoint x="628" y="507" as="sourcePoint" />
            <mxPoint x="590" y="410" as="targetPoint" />
            <Array as="points">
              <mxPoint x="640" y="460" />
              <mxPoint x="550" y="460" />
              <mxPoint x="550" y="428" />
            </Array>
          </mxGeometry>
        </mxCell>
        <mxCell id="18kSIOf5u8bGrFoKXUlI-79" value="" style="endArrow=none;dashed=1;html=1;rounded=0;exitX=0.403;exitY=-0.02;exitDx=0;exitDy=0;exitPerimeter=0;" edge="1" parent="1" source="18kSIOf5u8bGrFoKXUlI-60">
          <mxGeometry width="50" height="50" relative="1" as="geometry">
            <mxPoint x="580" y="350" as="sourcePoint" />
            <mxPoint x="490" y="160" as="targetPoint" />
          </mxGeometry>
        </mxCell>
        <mxCell id="18kSIOf5u8bGrFoKXUlI-80" value="" style="endArrow=none;dashed=1;html=1;rounded=0;exitX=0.603;exitY=-0.02;exitDx=0;exitDy=0;exitPerimeter=0;" edge="1" parent="1" source="18kSIOf5u8bGrFoKXUlI-60">
          <mxGeometry width="50" height="50" relative="1" as="geometry">
            <mxPoint x="478" y="509" as="sourcePoint" />
            <mxPoint x="510" y="200" as="targetPoint" />
          </mxGeometry>
        </mxCell>
        <mxCell id="18kSIOf5u8bGrFoKXUlI-81" value="" style="endArrow=none;dashed=1;html=1;rounded=0;exitX=0.65;exitY=0.02;exitDx=0;exitDy=0;exitPerimeter=0;" edge="1" parent="1" source="18kSIOf5u8bGrFoKXUlI-66">
          <mxGeometry width="50" height="50" relative="1" as="geometry">
            <mxPoint x="502" y="509" as="sourcePoint" />
            <mxPoint x="630" y="200" as="targetPoint" />
            <Array as="points">
              <mxPoint x="660" y="450" />
              <mxPoint x="730" y="450" />
              <mxPoint x="720" y="140" />
              <mxPoint x="630" y="140" />
            </Array>
          </mxGeometry>
        </mxCell>
        <mxCell id="18kSIOf5u8bGrFoKXUlI-82" value="" style="endArrow=none;dashed=1;html=1;rounded=0;exitX=0.65;exitY=0.02;exitDx=0;exitDy=0;exitPerimeter=0;" edge="1" parent="1">
          <mxGeometry width="50" height="50" relative="1" as="geometry">
            <mxPoint x="668" y="511" as="sourcePoint" />
            <mxPoint x="640" y="180" as="targetPoint" />
            <Array as="points">
              <mxPoint x="670" y="460" />
              <mxPoint x="740" y="460" />
              <mxPoint x="730" y="150" />
              <mxPoint x="640" y="150" />
            </Array>
          </mxGeometry>
        </mxCell>
        <mxCell id="18kSIOf5u8bGrFoKXUlI-83" value="" style="endArrow=none;html=1;rounded=0;exitX=0.02;exitY=0.373;exitDx=0;exitDy=0;exitPerimeter=0;" edge="1" parent="1" source="18kSIOf5u8bGrFoKXUlI-43">
          <mxGeometry width="50" height="50" relative="1" as="geometry">
            <mxPoint x="600" y="250" as="sourcePoint" />
            <mxPoint x="650" y="200" as="targetPoint" />
            <Array as="points">
              <mxPoint x="560" y="351" />
              <mxPoint x="560" y="200" />
            </Array>
          </mxGeometry>
        </mxCell>
        <mxCell id="18kSIOf5u8bGrFoKXUlI-85" value="&lt;font style=&quot;font-size: 10px;&quot;&gt;Switch&lt;/font&gt;" style="text;html=1;align=center;verticalAlign=middle;resizable=0;points=[];autosize=1;strokeColor=none;fillColor=none;" vertex="1" parent="1">
          <mxGeometry x="180" y="28" width="50" height="30" as="geometry" />
        </mxCell>
        <mxCell id="18kSIOf5u8bGrFoKXUlI-88" value="" style="endArrow=none;html=1;rounded=0;exitX=0.688;exitY=0.008;exitDx=0;exitDy=0;exitPerimeter=0;fillColor=#f8cecc;strokeColor=#b85450;" edge="1" parent="1" source="18kSIOf5u8bGrFoKXUlI-53">
          <mxGeometry width="50" height="50" relative="1" as="geometry">
            <mxPoint x="580" y="250" as="sourcePoint" />
            <mxPoint x="290" y="320" as="targetPoint" />
            <Array as="points">
              <mxPoint x="230" y="340" />
            </Array>
          </mxGeometry>
        </mxCell>
        <mxCell id="18kSIOf5u8bGrFoKXUlI-89" value="" style="endArrow=none;html=1;rounded=0;exitX=0.688;exitY=0.008;exitDx=0;exitDy=0;exitPerimeter=0;" edge="1" parent="1">
          <mxGeometry width="50" height="50" relative="1" as="geometry">
            <mxPoint x="214" y="350" as="sourcePoint" />
            <mxPoint x="290" y="330" as="targetPoint" />
            <Array as="points">
              <mxPoint x="240" y="350" />
            </Array>
          </mxGeometry>
        </mxCell>
        <mxCell id="18kSIOf5u8bGrFoKXUlI-90" value="ESP32" style="text;html=1;align=center;verticalAlign=middle;resizable=0;points=[];autosize=1;strokeColor=#d6b656;fillColor=#fff2cc;" vertex="1" parent="1">
          <mxGeometry x="660" y="100" width="60" height="30" as="geometry" />
        </mxCell>
        <mxCell id="18kSIOf5u8bGrFoKXUlI-91" value="Nano" style="text;html=1;align=center;verticalAlign=middle;resizable=0;points=[];autosize=1;strokeColor=#6c8ebf;fillColor=#dae8fc;" vertex="1" parent="1">
          <mxGeometry x="595" y="300" width="50" height="30" as="geometry" />
        </mxCell>
        <mxCell id="18kSIOf5u8bGrFoKXUlI-92" value="" style="endArrow=none;html=1;rounded=0;entryX=0.833;entryY=0.857;entryDx=0;entryDy=0;entryPerimeter=0;fillColor=#d5e8d4;strokeColor=#82b366;" edge="1" parent="1" source="18kSIOf5u8bGrFoKXUlI-37" target="18kSIOf5u8bGrFoKXUlI-94">
          <mxGeometry width="50" height="50" relative="1" as="geometry">
            <mxPoint x="580" y="350" as="sourcePoint" />
            <mxPoint x="710" y="420" as="targetPoint" />
            <Array as="points">
              <mxPoint x="710" y="310" />
              <mxPoint x="710" y="400" />
            </Array>
          </mxGeometry>
        </mxCell>
        <mxCell id="18kSIOf5u8bGrFoKXUlI-94" value="&lt;font style=&quot;font-size: 10px;&quot;&gt;3&lt;/font&gt;&lt;div&gt;&lt;font style=&quot;font-size: 10px;&quot;&gt;4&lt;/font&gt;&lt;/div&gt;&lt;div&gt;&lt;font style=&quot;font-size: 10px;&quot;&gt;5&lt;/font&gt;&lt;/div&gt;&lt;div&gt;&lt;font style=&quot;font-size: 10px;&quot;&gt;7&lt;/font&gt;&lt;/div&gt;" style="text;html=1;align=center;verticalAlign=middle;resizable=0;points=[];autosize=1;strokeColor=none;fillColor=none;" vertex="1" parent="1">
          <mxGeometry x="625" y="340" width="30" height="70" as="geometry" />
        </mxCell>
        <mxCell id="18kSIOf5u8bGrFoKXUlI-95" value="" style="endArrow=none;html=1;rounded=0;fillColor=#d5e8d4;strokeColor=#82b366;" edge="1" parent="1">
          <mxGeometry width="50" height="50" relative="1" as="geometry">
            <mxPoint x="650" y="350" as="sourcePoint" />
            <mxPoint x="710" y="350" as="targetPoint" />
          </mxGeometry>
        </mxCell>
        <mxCell id="18kSIOf5u8bGrFoKXUlI-96" value="" style="endArrow=none;html=1;rounded=0;fillColor=#d5e8d4;strokeColor=#82b366;" edge="1" parent="1">
          <mxGeometry width="50" height="50" relative="1" as="geometry">
            <mxPoint x="650" y="370" as="sourcePoint" />
            <mxPoint x="710" y="370" as="targetPoint" />
          </mxGeometry>
        </mxCell>
        <mxCell id="18kSIOf5u8bGrFoKXUlI-98" value="" style="endArrow=none;html=1;rounded=0;exitX=-0.02;exitY=0.067;exitDx=0;exitDy=0;exitPerimeter=0;fillColor=#f8cecc;strokeColor=#b85450;" edge="1" parent="1" source="18kSIOf5u8bGrFoKXUlI-43">
          <mxGeometry width="50" height="50" relative="1" as="geometry">
            <mxPoint x="540" y="340" as="sourcePoint" />
            <mxPoint x="540" y="170" as="targetPoint" />
            <Array as="points">
              <mxPoint x="540" y="340" />
            </Array>
          </mxGeometry>
        </mxCell>
        <mxCell id="18kSIOf5u8bGrFoKXUlI-99" value="" style="endArrow=none;html=1;rounded=0;fillColor=#d5e8d4;strokeColor=#82b366;" edge="1" parent="1">
          <mxGeometry width="50" height="50" relative="1" as="geometry">
            <mxPoint x="650" y="380" as="sourcePoint" />
            <mxPoint x="710" y="380" as="targetPoint" />
          </mxGeometry>
        </mxCell>
      </root>
    </mxGraphModel>
  </diagram>
</mxfile>
